<svg xmlns="http://www.w3.org/2000/svg" viewBox="0 0 71 65"><path d="m 57.566406,0 c -0.263499,0 -0.527344,5.1413816e-4 -0.527344,0.26367188 -0.0375,0.0374682 -0.06307,0.0859413 -0.07617,0.13867187 L 55.091797,1.484375 C 54.986844,1.3980257 54.86364,1.3485807 54.666016,1.4472656 l -1.449219,0.7890625 c -0.09661,0.096527 -0.190969,0.1933227 -0.183594,0.3417969 -0.0098,0.019954 -0.01813,0.04055 -0.02344,0.0625 l -1.794922,1.0390625 c -0.09319,-0.057374 -0.206552,-0.077283 -0.369141,0.00391 l -1.328125,0.84375 c -0.0947,0.019675 -0.188799,0.084744 -0.251953,0.2109374 -0.0375,0.037469 -0.06307,0.085941 -0.07617,0.1386719 L 47.318359,5.9589844 C 47.213383,5.8726351 47.090128,5.8231901 46.892578,5.921875 l -1.449219,0.7890625 c -0.09661,0.096527 -0.190979,0.1933227 -0.183593,0.3417969 -0.0096,0.01939 -0.01815,0.039261 -0.02344,0.060547 L 43.253906,8.2597656 43.076172,8.1582031 H 42.8125 L 42.210938,8.5 c -0.140324,-0.071123 -0.342962,-0.034571 -0.453126,0.1855469 v 0.2617187 5.6621094 c -2.205449,-1.263582 -4.409578,-2.527706 -6.585937,-3.820313 h -0.263672 c -0.1317,0.1315 -0.131972,0.13086 -0.263672,0.13086 L 5.796875,27.763672 c -0.5268995,0.2632 -0.9231898,0.657194 -1.3183594,1.183594 -0.3951796,0.526299 -0.6573326,1.053038 -0.7890625,1.710937 -0.5268994,2.368398 -1.317711,5.789065 -1.7128906,8.289063 v 0.263672 0.394531 5.816406 l -1.5,0.898437 c -0.0214944,-0.0026 -0.0466092,-0.0039 -0.0820313,-0.0039 -0.20648192,0 -0.3303503,0.08251 -0.375,0.244141 -0.0073475,0.0073 -0.01119557,0.0112 -0.01953125,0.01953 0,0.02372 4.0979557e-4,0.05521 0.00195313,0.08594 C 9.6989895e-4,46.681107 0,46.694864 0,46.710938 v 5.130859 c 0,0.1316 0.13194601,0.264884 0.26367188,0.396484 l 6.05078122,3.453125 -2.6601562,1.490235 c -0.076098,0.01172 -0.1524149,0.05469 -0.2285157,0.05469 v 0.13086 1.974609 c 0,0.1316 -8.704e-4,0.263672 0.1308594,0.263672 L 4.875,60.394531 c 0.1286406,0.128514 0.3787705,0.0078 0.390625,0.002 h 0.00391 l 0.5996094,-0.349609 c 0.565973,-0.08854 1.1725588,-0.226325 1.5097656,-0.310547 0.1317299,0 0.2628014,-0.130859 0.3945313,-0.130859 l 0.7910156,-0.527344 1.7343749,-1.113281 3.900391,2.226562 -2.607422,1.519532 c -0.1317,0.131599 -0.262559,0.262931 -0.130859,0.394531 v 1.972656 c -1e-6,0.1315 -9.41e-4,0.263672 0.130859,0.263672 l 1.318359,0.789062 c 0.1317,0 0.262832,7.41e-4 0.394532,-0.130859 v -0.07617 L 71,31.580078 70.736328,31.052734 13.304688,64.210938 v -1.316407 l 2.830078,-1.597656 0.591796,0.337891 v 0.07617 c 0.1318,0.131599 0.263945,0.262459 0.527344,0.130859 l 0.03711,-0.02148 c 0.0534,-0.0169 0.09623,-0.04443 0.130859,-0.08008 l 2.466797,-1.476562 c 0.1318,-0.1316 0.261719,-0.264885 0.261719,-0.396484 v -0.806641 l 3.613281,-2.087891 c 0.02621,1.32e-4 0.05178,0 0.07813,0 0.1317,0 0.394803,-0.130119 0.658203,-0.261718 0.2635,-0.1316 0.394803,-0.264145 0.658203,-0.527344 0.0046,-0.0092 0.01072,-0.01817 0.01563,-0.02734 l 3.671875,-2.123047 v 0.04492 c 0,0.2632 0.131132,0.394531 0.394531,0.394531 0.1318,0 0.131972,-0.130859 0.263672,-0.130859 l 9.748047,-5.658203 c 0.1317,-0.1316 0.263672,-0.263032 0.263672,-0.394532 v -0.425781 l 0.177734,-0.101562 h 0.216797 C 40.041856,47.630219 40.3058,47.6316 40.4375,47.5 c 0.2635,-0.1316 0.394803,-0.264244 0.658203,-0.527344 0.0056,-0.01123 0.01345,-0.02198 0.01953,-0.0332 l 15.75586,-9.111328 c 0.143212,0.06539 0.351919,0.06641 0.560547,0.06641 0.131699,0 0.394803,-0.132172 0.658203,-0.263672 0.263499,-0.131599 0.394703,-0.264144 0.658203,-0.527343 0.09977,-0.199304 0.275665,-0.398325 0.412109,-0.597657 l 2.384766,-1.378906 c 0.07596,0.0036 0.154771,0.0039 0.234375,0.0039 0.1317,0 0.394803,-0.130119 0.658203,-0.261718 0.2635,-0.1316 0.394803,-0.264144 0.658203,-0.527344 0.02866,-0.05724 0.06511,-0.114642 0.103516,-0.171875 l 3.460937,-2 c 0.06373,0.04424 0.1478,0.06641 0.25586,0.06641 0.131699,0 0.131972,-0.130859 0.263672,-0.130859 L 70.869141,30 l -0.103516,-0.205078 0.103516,-0.05859 -0.263672,-0.52539 -0.103516,0.05859 -0.0293,-0.05859 -1.449218,0.818359 V 26.125 l 0.132812,-0.07227 c 0.125462,-0.125176 0.250268,-0.251451 0.148438,-0.490234 l 1.287109,-0.826172 c 0.0048,9.2e-5 0.0087,0.002 0.01367,0.002 0.210496,0 0.336577,-0.08594 0.378906,-0.253906 L 71,24.474609 l -0.0098,-0.01563 c 0.0069,-0.03567 0.01172,-0.07464 0.01172,-0.117187 V 8.2890625 c 0.1318,-0.2631497 8.41e-4,-0.3950434 -0.130859,-0.6582031 z m 0.04883,1.0429688 12.595704,7.2265624 V 8.703125 L 68.714844,9.5566406 55.869141,2.0527344 Z M 54.925781,2.1796875 68.177734,9.921875 67.447266,10.320312 54.083984,2.6386719 Z M 53.662109,3.28125 66.675781,10.761719 64.894531,11.794922 51.921875,4.2871094 Z M 51.052734,4.4609375 64.289062,12.123047 63.560547,12.519531 50.335938,4.9179688 Z M 49.841797,5.5175781 62.855469,13 61.007812,14.068359 48.097656,6.5253906 Z m -2.6875,1.1367188 13.251953,7.7421871 -0.732422,0.398438 -13.363281,-7.6816408 z m -1.265625,1.0996093 13.013672,7.4804688 -1.734375,1.005859 -13.03125,-7.474609 z m -2.8125,1.0625 13.664062,7.8749998 -0.162109,0.0918 c -0.0234,-0.0242 -0.04219,-0.04806 -0.06641,-0.07227 l -13.625,-7.8125005 z M 70.210938,9.5839844 V 24.027344 L 69.15625,24.587891 V 10.263672 c 0.04837,-0.0483 0.09553,-0.09754 0.130859,-0.152344 z m -27.66211,0.1542968 13.435547,7.6308598 v 14.86914 l -0.658203,-0.330078 v -2.310547 c 0.126051,-0.132455 0.125058,-0.386971 -0.13086,-0.517578 V 17.763672 C 55.195313,17.632072 55.1942,17.5 55.0625,17.5 L 43.207031,10.658203 c -0.1318,0 -0.262831,-7.4e-4 -0.394531,0.130859 v 0.132813 4.294922 c -0.08813,-0.05047 -0.175543,-0.101873 -0.263672,-0.152344 z m 26.080078,0.8124998 v 14.712891 0.201172 l -0.791015,0.43164 V 10.982422 Z m -25.289062,0.896485 11.328125,6.580078 v 10.746094 l -4.21875,-2.458985 v -6.445312 c 0,-0.1315 -0.13086,-0.262932 -0.13086,-0.394532 -0.131699,-0.131599 -0.131972,-0.263671 -0.263671,-0.263671 h -0.263672 c -0.02672,0 -0.05336,0.0048 -0.08008,0.0059 -2.107307,-1.249006 -4.237268,-2.474719 -6.371094,-3.697266 z m 23.707031,0.11914 v 14.244141 l -1.710937,0.990234 v -14.24414 z m -32.007813,0.275391 c 4.565521,2.588368 9.131756,5.182464 13.697266,7.878906 L 20.546875,35.921875 c -0.19822,0.09892 -0.332919,0.21608 -0.494141,0.371094 L 6.2363281,28.353516 c 0.029176,-0.02085 0.058661,-0.04499 0.087891,-0.06445 z m 29.769532,0.873047 v 14.986328 l -0.791016,0.43164 V 13.144531 Z m -1.582032,1.08789 v 14.173828 l -1.839843,1.123047 V 14.867188 Z m -2.367187,1.220704 V 29.9375 l -0.597656,0.326172 h -0.0625 v 0.0332 l -0.13086,0.07227 V 15.453125 Z m -1.582031,1.013671 V 30.283203 L 57.5625,31.275391 V 17.029297 Z m -2.240235,1.199219 V 32.5 l -0.261718,0.130859 V 17.367188 Z m -7.378906,3.158203 v 13.521485 l -1.841797,3.189453 0.261719,0.173828 -1.517578,0.878906 h -0.326172 v 0.189453 l -2.628906,1.521485 H 43.46875 v 0.07813 l -2.589844,1.5 h -0.308594 v 0.179687 l -2.238281,1.294922 v -0.02734 h -0.527343 v 0.332031 l -2.38086,1.378907 h -0.384766 v 0.222656 l -2.371093,1.373047 v -0.01758 h -0.527344 v 0.322265 l -2.238281,1.296875 v -0.03906 H 29.375 v 0.34375 l -2.371094,1.373047 v -0.0059 h -0.394531 v 0.234375 l -2.546875,1.47461 h -0.351562 v 0.203125 l -2.376954,1.376953 h -0.388672 v 0.224609 l -1.783203,1.03125 -0.326171,-0.203125 c -0.1317,-0.1316 -0.262832,-0.1316 -0.394532,0 l -0.796875,0.441406 c -0.01155,-2.059543 -0.119273,-4.624675 0.0059,-6.625 V 47.5 c 0.526899,-2.763097 1.18515,-5.656825 1.84375,-8.419922 0.131699,-0.1316 0.131972,-0.395103 0.263671,-0.658203 0.1318,-0.2632 0.262832,-0.395103 0.394532,-0.658203 0.1317,-0.1316 0.395644,-0.395844 0.527344,-0.527344 0.131699,-0.1316 0.395643,-0.262931 0.527343,-0.394531 z m -1.972656,3.158203 c -0.1317,0 -0.262732,-7.4e-4 -0.394531,0.13086 l -14.490235,8.552734 -0.396484,0.394531 c -0.1318,0.1316 -0.130859,0.395744 -0.130859,0.527344 0,0.1316 0.130859,0.263032 0.130859,0.394531 0,0 0.0011,0.13086 0.132812,0.13086 h 0.263672 c 0.1318,0 0.262832,7.4e-4 0.394531,-0.13086 l 14.357422,-8.421875 c 0.1317,-0.131599 0.264685,-0.262931 0.396485,-0.394531 0.1317,-0.2631 0.131972,-0.395003 0.263672,-0.658203 0,-0.1315 -0.132813,-0.262931 -0.132813,-0.394531 0,0 8.41e-4,-0.13086 -0.130859,-0.13086 z m 0,0.525391 c 0,0 -0.132813,0.132072 -0.132813,0.263672 -0.131699,0.1316 -0.129919,0.263672 -0.261718,0.263672 -4.873796,2.763097 -9.61728,5.790277 -14.359375,8.421875 0,0 0.132812,-0.132172 0.132812,-0.263672 0.1317,-0.1316 0.131972,-0.263672 0.263672,-0.263672 4.742195,-2.763197 9.483627,-5.790278 14.357422,-8.421875 z m 20.943359,2.261719 v 3.912109 l -1.185547,0.669922 v -1.316406 c 0,0 -0.130859,-0.132072 -0.130859,-0.263672 -0.1318,-0.1316 -0.131872,-0.263672 -0.263672,-0.263672 0,-0.1315 -0.131972,-0.130859 -0.263672,-0.130859 0,0 -0.131972,0.130859 -0.263672,0.130859 l -0.263672,0.152344 v -1.945313 l 0.835938,-0.484375 c 0.05927,0.114001 0.17424,0.171875 0.347656,0.171875 0.176004,0 0.291212,-0.06022 0.34961,-0.177734 z m -21.076172,0.634765 c -0.131699,0 -0.262831,-7.4e-4 -0.394531,0.13086 l -14.357422,8.421875 -0.396484,0.394531 c -0.1318,0.1316 -0.130859,0.395744 -0.130859,0.527344 0,0.1316 0.130859,0.263031 0.130859,0.394531 0,0 0.0011,0.130859 0.132812,0.130859 h 0.263672 c 0.1318,0 0.262832,7.41e-4 0.394531,-0.130859 l 14.357422,-8.421875 c 0.1317,-0.1316 0.264685,-0.262931 0.396485,-0.394531 0.1317,-0.1315 0.130859,-0.395744 0.130859,-0.527344 0,-0.1316 -0.130859,-0.262931 -0.130859,-0.394531 0,0 -0.001,-0.13086 -0.132813,-0.13086 z m 2.896485,0.228516 4.085937,2.380859 v 7.472657 l -2.636718,-1.560547 v -3.259766 c 0,-0.186899 -0.07017,-0.303276 -0.203126,-0.357422 0.05819,-0.138849 0.01671,-0.326687 -0.193359,-0.43164 L 50.449219,30.863281 Z M 47.685547,27.5 c 0,0 -0.132813,0.132072 -0.132813,0.263672 -0.131699,0.1316 -0.129919,0.263672 -0.261718,0.263672 -4.873796,2.631597 -9.61728,5.790277 -14.359375,8.421875 0,0 0.132812,-0.132072 0.132812,-0.263672 0.1317,-0.1315 0.131972,-0.263672 0.263672,-0.263672 C 38.07032,33.290278 42.811752,30.131597 47.685547,27.5 Z m 18.044922,0.08984 v 1.945312 l -2.238281,1.296875 v -1.636719 c 0.03935,0.0088 0.08075,0.01367 0.128906,0.01367 0.176071,0 0.291204,-0.06025 0.349609,-0.177734 l 1.365235,-0.742188 c 0.131799,-0.131599 0.262559,-0.264244 0.130859,-0.527343 -0.004,-0.0039 -0.0078,-0.0078 -0.01172,-0.01172 z M 5.5527344,28.978516 19.449219,36.962891 c -0.03115,0.04716 -0.06389,0.09462 -0.08789,0.142578 -0.1318,0.263099 -0.262831,0.525963 -0.394531,0.789062 -0.1317,0.2632 -0.263672,0.658676 -0.263672,0.921875 -0.658599,2.894697 -1.316851,5.789637 -1.84375,8.552735 V 47.5 47.894531 54.248047 L 2.8984375,46.259766 v -6.654297 -0.263672 -0.263672 l 1.7128906,-8.289063 c 0.1317299,-0.526399 0.3947534,-1.052566 0.6582031,-1.447265 0.081852,-0.12263 0.1798709,-0.244585 0.2832032,-0.363281 z m 57.4121096,0.238281 v 1.919922 l -2.371094,1.373047 v -1.552735 l 0.789062,-0.429687 c 0.124142,-0.124048 0.246926,-0.248157 0.150391,-0.482422 z m -15.279297,0.914062 c -0.1317,0 -0.262832,-6.4e-4 -0.394531,0.13086 l -14.357422,8.552734 c -0.1318,0.1315 -0.264785,0.262932 -0.396485,0.394531 -0.131699,0.1316 -0.130859,0.395744 -0.130859,0.527344 0,0.1316 0.130859,0.262932 0.130859,0.394531 0,0 0.0011,0.13086 0.132813,0.13086 h 0.263672 c 0,0 0.131972,-0.13086 0.263672,-0.13086 l 14.357422,-8.421875 c 0.131699,-0.131599 0.262831,-0.263031 0.394531,-0.394531 0.1318,-0.1316 0.131972,-0.395103 0.263672,-0.658203 0,-0.1316 -0.13086,-0.262931 -0.13086,-0.394531 0,0 -0.001,-0.13086 -0.132812,-0.13086 z m 18.835937,0.132813 v 0.382812 l -0.322265,-0.197265 z m -18.835937,0.52539 c 0,0 -0.130859,0.132073 -0.130859,0.263672 -0.1318,0.1316 -0.131973,0.261719 -0.263672,0.261719 -4.873796,2.631497 -9.615327,5.790278 -14.357422,8.421875 0,0 0.130859,-0.132172 0.130859,-0.263672 0.1317,-0.1316 0.131972,-0.263672 0.263672,-0.263672 4.742095,-2.631597 9.483627,-5.788424 14.357422,-8.419922 z m -42.4726564,0.04492 c -0.1209201,-0.009 -0.2555657,0.05425 -0.3378906,0.21875 v 0.13086 l -1.7128906,8.289062 v 0.132813 L 3.03125,41.841797 c 0,0.1315 0.1308594,0.262931 0.1308594,0.394531 l 12.6464846,7.236328 c 0.1317,0.1316 0.395644,0.132241 0.527344,-0.130859 v -0.132813 c 0.131699,-0.657899 0.130859,-0.787681 0.130859,-1.050781 0.1318,-0.2632 0.132812,-0.527647 0.132812,-1.185547 l 1.710938,-8.289062 c 0,-0.2632 -0.129919,-0.393891 -0.261719,-0.525391 L 5.4023438,30.919922 c -0.049399,-0.04935 -0.1169011,-0.08054 -0.1894532,-0.08594 z m 60.7304684,0.1875 0.578125,0.330078 v 0.220704 l -2.683593,1.550781 c 0.06006,-0.119993 0.121587,-0.239405 0.18164,-0.359375 0.124277,-0.248364 0.130465,-0.497814 0.13086,-0.746094 z m -5.74414,0.150391 v 1.566406 l -2.371094,1.373047 v -1.972656 l 1.496094,-0.863281 c 0.05929,0.113972 0.174305,0.171875 0.347656,0.171875 0.177237,0 0.293555,-0.06064 0.351563,-0.179688 z m -9.75,0.568359 0.658203,0.365235 c 0.0056,0.0056 0.01152,0.01051 0.01758,0.01563 -0.0074,0.03673 -0.01758,0.0711 -0.01758,0.115234 v 3 c -0.04987,0.03529 -0.09512,0.08678 -0.13086,0.158203 -0.06412,0.06403 -0.09547,0.157914 -0.08203,0.253907 L 50.449219,35.90625 Z M 5.6660156,31.841797 6.984375,32.603516 v 5.248046 l -2.2421875,-1.30664 v -0.515625 z m 57.9414064,0.09961 0.01563,0.03125 c 0,0.1316 8.4e-4,0.395004 -0.130859,0.658203 0,0.1316 -0.131973,0.395004 -0.263672,0.658203 -0.05197,0.103744 -0.124422,0.207035 -0.201172,0.302735 l -1.59961,0.925781 c -0.05871,-0.01733 -0.117075,-0.04492 -0.175781,-0.04492 -0.130337,0 -0.260987,-0.127588 -0.263672,-0.257812 l 0.002,-0.0039 h -0.002 c -6.81e-4,-6.81e-4 -0.0013,-0.0013 -0.002,-0.002 -0.129667,-0.130921 -0.128906,-0.263552 -0.128906,-0.52539 V 33.525391 Z M 7.5117188,32.90625 9.8789062,34.273438 v 5.263671 L 7.5117188,38.158203 Z m 47.8144532,0.01367 0.921875,0.501953 c 0.1317,0.1316 0.395644,0.13224 0.527344,-0.130859 v -0.02148 l 0.52539,-0.300781 v 1.447266 l -1.974609,1.142578 z m 5.267578,0.757812 v 0.0059 c 0,0.126746 0.0015,0.224991 0.0059,0.310547 l -0.283203,-0.15625 z m -0.421875,0.75 c 0.20434,0.103264 0.399627,0.207278 0.554687,0.310547 l 0.04492,-0.08789 c 0.03405,0.0644 0.08269,0.11888 0.136719,0.167968 l -1.242187,0.71875 c 0.002,-0.0039 0.0039,-0.0078 0.0059,-0.01172 0.1317,-0.2632 0.130859,-0.525863 0.130859,-0.789063 v -0.09375 l 0.396485,-0.169922 z m -32.773437,0.04687 c -0.1317,0 -0.262832,-7.4e-4 -0.394532,0.13086 l -5.533203,3.158203 c -0.1317,0.1316 -0.261719,0.262931 -0.261719,0.394531 -0.131699,0.1316 -0.264784,0.262932 -0.396484,0.394531 v 0.132813 c -0.1317,0.1316 -0.131972,0.393891 -0.263672,0.525391 0,0.131599 -0.130859,0.395743 -0.130859,0.527343 l -0.08398,0.392578 h -0.04883 v 0.234375 l -0.830078,3.921875 -0.09375,0.05469 c -0.1318,0 -0.130859,-7.41e-4 -0.130859,0.130859 l -0.396485,1.97461 c 0,0.131499 9.41e-4,0.263672 -0.130859,0.263672 0,0.131599 0.130859,0.261718 0.130859,0.261718 0.07436,0.07425 0.108683,0.105067 0.146485,0.119141 0.01407,0.03782 0.0447,0.0721 0.11914,0.146484 0,0 0.131972,0.13086 0.263672,0.13086 h 0.263672 0.132813 L 27.53125,42.896484 C 27.66295,42.764885 27.794081,42.6316 27.925781,42.5 c 0.1317,-0.1316 0.132813,-0.393791 0.132813,-0.525391 v -6.710937 c 0,-0.1316 -0.132813,-0.262932 -0.132813,-0.394531 -0.1317,-0.1315 -0.131872,-0.263672 -0.263672,-0.263672 0,-0.1316 -0.131972,-0.13086 -0.263671,-0.13086 z m 31.710937,0.05664 0.03516,0.07031 v 0.002 c 0,0.131599 -0.001,0.395103 -0.132812,0.658203 0,0.1316 -0.131972,0.395103 -0.263672,0.658203 -0.03943,0.07874 -0.09055,0.157217 -0.146485,0.232422 l -1.697265,0.980468 c -0.04365,-0.01454 -0.08721,-0.0293 -0.130859,-0.0293 -0.05762,0 -0.115498,-0.02512 -0.16211,-0.06445 l 0.03125,-0.06445 -0.11914,-0.05859 c -0.0088,-0.02435 -0.01367,-0.04893 -0.01367,-0.07422 -0.1317,-0.1316 -0.132813,-0.264244 -0.132813,-0.527344 v -0.208984 z m -48.703125,0.04687 2.242188,1.292969 V 42.40625 L 12.121094,42.105469 10.804688,40.132812 C 10.804687,40.001213 10.671875,40 10.671875,40 L 10.40625,39.845703 Z m 39.251953,0.435547 v 0.908203 h 0.763672 l -1.132813,0.65625 H 49 v 0.167969 l -0.478516,0.277344 z m -22.523437,0.513672 0.175781,4.208984 h -0.04492 l -0.917969,0.535156 v -4.28125 z m -13.958985,0.648437 2.367188,1.365235 v 6.517578 l -2.367188,-1.351563 z m 43.070313,0.0039 v 0.0039 0.263672 c 0,0.13759 2.84e-4,0.241668 0.0059,0.332031 L 55.691406,36.5 Z m -30.425782,0.121093 v 4.277344 l -2.238281,1.304687 v -4.263671 z m 26.078126,0.08789 1.851562,1.095703 -1.851562,1.074219 z m -0.791016,0.05859 v 1.972656 L 50.410156,38.818359 50.185547,38.683594 50,39.052734 49.527344,39.322266 v -1.962891 z m 4.568359,0.630859 0.650391,0.390625 -4.431641,2.560547 c 4.77e-4,-0.01071 0.0039,-0.01811 0.0039,-0.0293 v -0.763672 l 2.429687,-1.410156 0.335937,0.199219 c 0.112744,0.112571 0.322342,0.127568 0.462891,-0.03516 0.131818,-0.05448 0.199219,-0.173277 0.199219,-0.359375 V 37.289062 Z M 4.7421875,37.224609 6.984375,38.53125 v 4.871094 L 4.7421875,42.109375 Z M 49,37.664062 v 1.939454 h 0.03516 l -2.273437,1.296875 v -1.941407 z m -33.0625,0.105469 1.583984,0.914063 -1.238281,5.798828 -0.345703,-0.197266 z m 7.117188,0.160157 v 4.259765 l -2.375,1.384766 v -1.117188 l 0.529296,-2.58789 c 0,-0.1315 0.13086,-0.262932 0.13086,-0.394532 0,-0.131599 -8.41e-4,-0.262931 0.130859,-0.394531 0.1318,0 0.131972,-0.132072 0.263672,-0.263672 0.1317,-0.1316 0.131972,-0.263672 0.263672,-0.263672 z M 4.2148438,38.419922 v 3.384766 L 3.8222656,41.578125 3.953125,39.605469 Z m 3.296875,0.417969 2.3671874,1.380859 v 4.855469 L 7.5117188,43.707031 Z m 38.7226562,0.425781 v 1.919922 h 0.002 v 0.01758 l -2.373047,1.355469 v -1.923829 z m 4.681641,0.542969 0.191406,0.115234 V 40 c 0,0.190885 0.07226,0.30892 0.210937,0.361328 l -5.292968,3.060547 c 0.02862,-0.0446 0.0558,-0.08821 0.07813,-0.132813 C 46.235215,43.025863 46.3683,42.7631 46.5,42.5 c 0.02829,-0.05654 0.04896,-0.113389 0.06641,-0.169922 z m -40.509766,0.71875 0.002,0.002 L 11.726562,42.5 c 0,0.1316 0.13086,0.132812 0.13086,0.132812 l 0.791016,0.451172 v 3.587891 L 10.40625,45.376953 Z m 16.859375,0 v 1.316406 0.130859 l -0.132813,0.132813 -0.785156,0.445312 v -1.501953 z m 16.203125,0.335937 v 1.902344 H 43.5 l -0.289062,0.164062 -0.136719,-0.0332 v 0.111328 l -0.767578,0.4375 -0.02148,-0.02148 -0.357422,0.238281 -0.830078,0.47461 v -1.904297 z m -17.648438,0.488281 v 1.501953 l -2.238281,1.271485 v -1.494141 z m 20.283204,1.039063 c -0.0067,0.256245 -0.13545,0.513281 -0.263672,0.769531 -0.1318,0.2631 -0.393691,0.52465 -0.525391,0.65625 -0.01791,0.01788 -0.04039,0.03681 -0.0625,0.05469 l -0.615234,0.357421 c -0.168387,0.03462 -0.273038,0.115235 -0.376953,0.115235 0,0.1316 -0.131972,0 -0.263672,0 -0.1317,0 -0.263672,-0.132072 -0.263672,-0.263672 -0.07649,-0.07637 -0.10765,-0.153664 -0.121094,-0.255859 0.83072,-0.47419 1.661472,-0.952616 2.492188,-1.433594 z m -5.533204,0.146484 v 1.900391 l -1.449218,0.828125 c -0.1317,0.1315 -0.264785,0.262931 -0.396485,0.394531 -0.131799,0.1316 -0.130859,0.393791 -0.130859,0.525391 v 1.535156 l -0.261719,0.152344 v -4.041016 z m -17.515624,0.394532 v 1.49414 l -2.375,1.34961 v -1.488282 z m -9.878907,0.455078 2.367188,1.351562 v 3.605469 l -2.367188,-1.365235 z m -9.222656,0.03711 c -0.1317299,0 -0.3956239,-7.4e-4 -0.5273438,0.130859 -0.1317298,0 -0.131952,0.132072 -0.2636718,0.263672 -0.1317299,0.1316 -0.1308594,0.395004 -0.1308594,0.658203 0,0.3947 0.1310815,0.921707 0.3945312,1.316407 0.2634498,0.394699 0.5267054,0.656822 0.921875,0.919922 0.2634498,0.263199 0.3967066,0.263671 0.6601563,0.263671 0.1317299,0 0.2619409,7.41e-4 0.5253906,-0.130859 0.1317299,0 0.131952,-0.132072 0.2636719,-0.263672 0.1317299,-0.1316 0.1328125,-0.395103 0.1328125,-0.658203 0,-0.3948 -0.1330346,-0.921707 -0.3964844,-1.316406 -0.2634497,-0.3947 -0.5266954,-0.656722 -0.921875,-0.919922 -0.2634497,-0.2631 -0.3947534,-0.263672 -0.6582031,-0.263672 z m 23.566406,0.339844 c -0.04116,-0.0022 -0.08189,0.01356 -0.123047,0.05469 l -2.898437,1.578125 c 0,0 -0.130859,0.132072 -0.130859,0.263672 v 1.052735 0.130859 c 0.131699,0.1316 0.262731,0.264412 0.394531,0.132812 l 2.898437,-1.580078 c 0.1317,0 0.132813,-0.130119 0.132813,-0.261719 v -1.052734 -0.132812 c -0.09054,-0.09047 -0.182894,-0.180599 -0.273438,-0.185547 z M 3.953125,43.947266 h 0.1328125 c 0.1317299,0 0.2628014,0.0012 0.3945313,0.132812 0.2634497,0.1315 0.5264732,0.525963 0.6582031,0.789063 0.1317198,0.394799 0.2636719,0.789534 0.2636719,1.052734 0,0.1316 -0.1308594,0.262931 -0.1308594,0.394531 l -0.1328125,0.13086 H 5.0078125 c -0.1317199,0 -0.2647545,7.4e-4 -0.3964844,-0.13086 -0.2634497,-0.1316 -0.5264832,-0.394263 -0.6582031,-0.789062 -0.1317299,-0.3947 -0.2636719,-0.789535 -0.2636719,-1.052735 0,-0.131599 0.1328125,-0.263031 0.1328125,-0.394531 z m 33.851563,0.1875 v 4.041015 l -2.371094,1.371094 v -4.042969 z m 4.93164,0.326172 0.734375,0.408203 0.07422,-0.183594 0.002,0.002 c 0.01981,0.0167 0.03822,0.03238 0.05469,0.04883 0.01947,0.01945 0.04161,0.0347 0.06641,0.04883 l -1.892578,1.09375 c 0.08092,-0.16164 0.163244,-0.322706 0.24414,-0.484375 0.09974,-0.199259 0.123034,-0.398326 0.128907,-0.597656 z m -15.470703,0.01367 v 0.394532 l -2.240234,1.316406 v -0.396485 z m -6.980469,0.03516 v 1.488281 l -0.373047,0.210937 0.34375,-1.683593 z m -4.347656,0.451172 0.216797,0.125 -0.216797,1.019531 z m 25.65625,0.0039 c -0.01916,0.09406 -0.05069,0.195253 -0.101562,0.296875 0,0.1316 -0.131973,0.395103 -0.263672,0.658203 -0.08743,0.17459 -0.232987,0.348225 -0.359375,0.484375 l -1.210938,0.699219 h -0.142578 v -0.78711 -0.132812 l 0.130859,-0.13086 c 0.648973,-0.357639 1.298299,-0.723296 1.947266,-1.08789 z M 6.7988281,45.263672 c -0.1152569,0.0018 -0.2304395,0.0158 -0.3457031,0.130859 V 45.527344 47.5 c 0,0.1316 -8.705e-4,0.263672 0.1308594,0.263672 L 7.375,48.158203 c 0.1317299,0 0.2628014,7.41e-4 0.3945312,-0.130859 v -0.132813 -1.972656 c 0,-0.1316 -0.1299988,-0.263672 -0.2617187,-0.263672 L 6.8476562,45.263672 c -0.016465,0 -0.032363,-2.57e-4 -0.048828,0 z m 28.2402339,0.46875 v 4.042969 l -2.371093,1.371093 V 47.101562 Z M 8.0195312,45.994141 c -0.082328,0.0064 -0.1637688,0.05859 -0.2460937,0.05859 v 0.13086 1.974609 c 0,0.1316 -8.605e-4,0.263672 0.1308594,0.263672 l 0.6601562,0.525391 c 0.1317299,0 0.2628014,7.4e-4 0.3945313,-0.13086 v -0.132812 -1.972656 c 0,-0.1316 8.705e-4,-0.263672 -0.1308594,-0.263672 L 8.1679688,46.052734 c -0.049395,-0.04935 -0.099041,-0.06245 -0.1484376,-0.05859 z m -1.0390624,0.05859 h 0.1308593 v 1.316407 z m -5.0039063,0.263672 v 0.261719 h 0.060547 c 0.050658,0.104957 0.1252661,0.185943 0.203125,0.263672 l 15.0156246,8.421875 c 0.1318,0.1316 0.262832,0.1316 0.394532,0 L 18.6875,54.6875 c 0.0068,0.0173 0.0063,0.03027 0.01563,0.04883 0.02803,0.02801 0.05663,0.05656 0.08594,0.08203 L 18.417969,55.029297 17.007812,55.78125 14.8125,54.527344 1.3164062,46.710938 Z m 6.3242187,0.394532 0.1308594,0.130859 v 1.316406 L 8.3007812,48.025391 Z m 1.1347657,0 c -0.1152617,0.0018 -0.2304395,0.01571 -0.3457031,0.130859 v 0.132812 1.972657 c 0,0.131599 -8.705e-4,0.263672 0.1308593,0.263672 l 0.6601563,0.394531 c 0.1316996,0 0.2627316,7.4e-4 0.3945316,-0.13086 v -0.132812 -1.972656 c 0,0 9.4e-4,-0.132072 -0.13086,-0.263672 L 9.484375,46.710938 c -0.016466,0 -0.032362,-2.58e-4 -0.048828,0 z M 9.6171875,47.369141 9.7480469,47.5 v 1.316406 L 9.6171875,48.685547 Z m 22.5234375,0.03711 v 4.044922 l -2.238281,1.292969 V 48.701172 Z M 0.79101562,47.5 16.464844,56.580078 v 4.078125 l -8.0136721,-4.642578 -0.019531,-0.09375 -0.072266,0.04102 -7.56835938,-4.382813 z m 9.96093738,0 c -0.115239,0.0018 -0.230378,0.01571 -0.345703,0.130859 v 0.132813 1.972656 c 0,0.1316 -9.4e-4,0.132072 0.130859,0.263672 l 0.660157,0.394531 c 0.131699,0 0.262831,6.41e-4 0.394531,-0.130859 v -0.132813 -1.972656 c 0,-0.1316 8.4e-4,-0.263672 -0.130859,-0.263672 L 10.800781,47.5 c -0.01646,0 -0.03237,-2.57e-4 -0.04883,0 z m 1.316406,0.658203 c -0.115237,0.0018 -0.230465,0.01571 -0.345703,0.130859 v 0.132813 1.972656 c 0,0.1316 -8.4e-4,0.263672 0.13086,0.263672 l 0.660156,0.525391 c 0.1317,0 0.262831,7.4e-4 0.394531,-0.13086 v -0.130859 -1.974609 c 0,-0.1316 8.41e-4,-0.263672 -0.130859,-0.263672 l -0.660156,-0.525391 c -0.01646,0 -0.03237,-2.57e-4 -0.04883,0 z m -1.134765,0.130859 0.130859,0.132813 v 1.314453 l -0.130859,-0.130859 z m 1.316406,0.658204 0.130859,0.132812 v 1.314453 L 12.25,50.263672 Z m 17.125,0.05859 v 2.132813 c -0.03367,-0.05116 -0.06742,-0.08594 -0.134766,-0.08594 0,-0.131599 -0.130019,-0.132812 -0.261718,-0.132812 0,0 -0.131872,0.132812 -0.263672,0.132812 l -1.710938,0.980469 V 50.375 Z m -15.146484,0.46875 c -0.1318,0 -0.264785,-7.4e-4 -0.396485,0.13086 -0.1317,0 -0.131872,0.132072 -0.263672,0.263672 -0.131699,0.131499 -0.130859,0.395103 -0.130859,0.658203 0,0.394799 0.131032,0.921706 0.394531,1.316406 0.2634,0.3948 0.526676,0.656722 0.921875,0.919922 0.2634,0.2631 0.396657,0.263672 0.660156,0.263672 0.1317,0 0.394532,6.4e-4 0.394532,-0.13086 0.1317,0 0.131972,-0.132072 0.263672,-0.263672 0.131699,-0.131599 0.130859,-0.395003 0.130859,-0.658203 0,-0.394699 -0.131132,-0.921606 -0.394531,-1.316406 -0.2635,-0.394699 -0.526676,-0.656822 -0.921875,-0.919922 -0.2635,-0.263199 -0.394804,-0.263672 -0.658203,-0.263672 z m 0,0.525391 h 0.130859 c 0.1317,0 0.263844,0.0012 0.527344,0.132812 0.263399,0.1316 0.526503,0.525863 0.658203,0.789063 0.1317,0.3947 0.263672,0.789635 0.263672,1.052734 0,0.1316 -0.13086,0.263032 -0.13086,0.394532 L 15.544922,52.5 h -0.13086 c -0.131699,0 -0.264784,7.4e-4 -0.396484,-0.130859 -0.2634,-0.1315 -0.525663,-0.525963 -0.789062,-0.789063 -0.1318,-0.394799 -0.263672,-0.789535 -0.263672,-1.052734 0,-0.1315 0.130859,-0.262932 0.130859,-0.394532 z m 12.380859,0.603516 v 1.654296 l -2.371094,1.359376 v -1.644532 z m -2.898437,1.673828 v 1.640625 l -2.238282,1.283203 v -1.628906 z m 5.134765,0.08984 v 0.447265 l -0.423828,-0.228515 z m -0.800781,0.611328 0.705078,0.433593 -2.914062,1.683594 c 0.08183,-0.163458 0.164286,-0.326805 0.246093,-0.490234 0.09088,-0.181625 0.118223,-0.36333 0.126953,-0.544922 z m -7.09961,0.898437 v 1.625 l -0.794921,0.455078 v -1.220703 -0.263672 c -0.02989,-0.02987 -0.0584,-0.05915 -0.08984,-0.08594 z m 4.734376,0.121094 c -0.01058,0.134712 -0.03966,0.304066 -0.125,0.474609 0,0.1316 -0.131973,0.395004 -0.263672,0.658203 -0.08897,0.177607 -0.23732,0.355004 -0.365235,0.492188 l -1.197265,0.691406 c -0.0062,5.51e-4 -0.0114,0 -0.01758,0 -0.1318,0.1316 -0.264785,0 -0.396485,0 -0.04854,0 -0.09671,-0.01576 -0.138672,-0.04492 -0.01402,-0.0455 -0.04692,-0.06617 -0.07617,-0.07617 -0.03011,-0.04241 -0.04883,-0.09128 -0.04883,-0.140625 -0.1317,-0.131599 -0.130859,-0.264144 -0.130859,-0.527343 v -0.107422 z m -6.31836,1.527344 v 4.080078 l -0.787109,0.419922 v -4.107422 z m 3.294922,0.02734 c 4.3e-5,0.180158 6.1e-5,0.310984 0.01563,0.419922 L 22.271484,55.75 Z m -15.8496094,0.419922 0.7734375,0.441406 -2.5742187,1.482422 c -0.013338,0.01331 -0.020477,0.02036 -0.03125,0.03125 L 4.2597656,57.5 Z m 11.2402344,0.228516 v 0.509766 3.59375 l -0.527344,0.28125 v -4.083985 z m 4.115234,0.164062 c 0.229343,0.115006 0.452341,0.230728 0.625,0.345704 0.07159,0 0.143295,-3.93e-4 0.214844,-0.02148 0.01079,0.0092 0.0224,0.01651 0.0332,0.02539 l -2.021484,1.169922 c 0.107861,-0.215501 0.216358,-0.431009 0.324219,-0.646485 0.09061,-0.18095 0.118104,-0.362048 0.126953,-0.542969 l 0.0078,0.01563 z m -1.220703,0.07031 v 0.01172 c 0,0.131599 9.41e-4,0.395003 -0.130859,0.658203 0,0.1316 -0.131972,0.395003 -0.263672,0.658203 -0.1317,0.1316 -0.262831,0.395744 -0.394531,0.527344 l -0.002,0.002 v -1.451172 h 0.002 z m -12.7285154,0.339844 1.0644532,0.607421 -4.0078126,2.355469 v -1.316406 z m -4.2597656,1.11914 0.7890625,0.525391 v 1.185547 L 3.953125,59.208984 Z m 10.832031,2.632813 0.763672,0.435547 -2.509766,1.460937 -0.787109,-0.451172 z m -2.796875,2.103515 0.789063,0.394532 v 1.316406 l -0.789063,-0.394531 z"></path></svg>